<svg width="429.00000000000006" height="71.94154718943558" viewBox="0 0 214.67428215483125 36" class="looka-1j8o68f"><defs id="SvgjsDefs7144"><linearGradient id="SvgjsLinearGradient7151"><stop id="SvgjsStop7152" stop-color="#905e26" offset="0"></stop><stop id="SvgjsStop7153" stop-color="#f5ec9b" offset="0.5"></stop><stop id="SvgjsStop7154" stop-color="#905e26" offset="1"></stop></linearGradient></defs><g id="SvgjsG7145" featurekey="nameLeftFeature-0" transform="matrix(1.2668027633131838,0,0,1.2668027633131838,-2.1776337761664775,-14.67210932441009)" fill="#f6f6f6"><path d="M23.789 11.582 l0 4.7266 l-17.656 8.9258 l17.656 8.9258 l0 4.8047 l-22.07 -11.172 l0 -5.1367 z M47.852000000000004 11.777000000000001 l6.2305 0 l-10.43 28.223 l-6.4453 0 l-10.371 -28.223 l6.2109 0 l7.4023 21.387 z M79.49196875 11.777000000000001 l-9.2773 14.707 l0 13.516 l-5.8789 0 l0 -13.379 l-9.3359 -14.844 l6.4844 0 l5.7617 9.6094 l5.7813 -9.6094 l6.4648 0 z"></path></g><g id="SvgjsG7146" featurekey="inlineSymbolFeature-0" transform="matrix(0.45,0,0,0.45,99.5,-4.5)" fill="url(#SvgjsLinearGradient7151)"><path xmlns="http://www.w3.org/2000/svg" d="M50,10L10,90h80L50,10z M50,24.909L72.546,70H42.36l3.333-6.667h16.064L50,39.814L31.575,76.667h44.304l3.333,6.666H20.788  L50,24.909z"></path></g><g id="SvgjsG7147" featurekey="nameRightFeature-0" transform="matrix(1.2113053129405367,0,0,1.2113053129405367,143.30417591193648,-13.033647754867491)" fill="#f6f6f6"><path d="M8.04 26.68 q-1.36 -0.52 -2.44 -1.14 t-1.84 -1.48 t-1.18 -2.06 t-0.42 -2.88 q0 -2.04 0.7 -3.6 t1.98 -2.62 t3.08 -1.6 t4.04 -0.54 q2.04 0 3.82 0.36 t3.74 1.04 q-0.24 2.32 -1.28 4.56 l-1.2 -0.48 q-0.64 -0.24 -1.34 -0.4 t-1.58 -0.26 t-2 -0.1 q-0.68 0 -1.38 0.12 t-1.26 0.44 t-0.92 0.94 t-0.36 1.62 q0 0.8 0.28 1.34 t0.76 0.92 t1.08 0.62 l1.2 0.52 l2.4 0.92 q1.52 0.6 2.76 1.24 t2.1 1.58 t1.34 2.28 t0.48 3.34 t-0.74 3.68 t-2.14 2.88 t-3.46 1.88 t-4.74 0.68 q-1.32 0 -2.36 -0.08 t-1.98 -0.26 t-1.86 -0.46 t-1.92 -0.68 q0.12 -1.16 0.44 -2.42 t0.76 -2.54 q1.68 0.68 3.16 1.02 t3.16 0.34 q2.52 0 3.96 -0.94 t1.44 -2.86 q0 -0.96 -0.34 -1.6 t-0.88 -1.08 t-1.22 -0.74 t-1.4 -0.58 z M32.2 11.239999999999998 q1.48 -0.24 2.86 -0.24 t2.82 0.24 l-9.76 28.76 q-1.44 0.24 -2.82 0.24 t-2.82 -0.24 z M54.04 26.439999999999998 l-12.08 -4.12 q-0.12 -0.6 -0.16 -1.26 t-0.04 -1.34 q0 -0.56 0.04 -1.28 t0.2 -1.52 l16.56 6.56 q0.36 1.64 0.36 3.08 t-0.36 2.88 l-16.56 6.52 q-0.24 -1.56 -0.24 -2.52 q0 -0.68 0.04 -1.36 t0.16 -1.28 z"></path></g></svg>